<svg width="512" height="512" viewBox="0 0 512 512" fill="none" xmlns="http://www.w3.org/2000/svg">
<rect width="512" height="512" rx="50" fill="#292929"/>
<path d="M83.224 177.944C83.224 169.069 85.144 161.176 88.984 154.264C92.824 147.267 98.1573 141.848 104.984 138.008C111.896 134.083 119.704 132.12 128.408 132.12C139.075 132.12 148.205 134.936 155.8 140.568C163.395 146.2 168.472 153.88 171.032 163.608H146.968C145.176 159.853 142.616 156.995 139.288 155.032C136.045 153.069 132.333 152.088 128.152 152.088C121.411 152.088 115.949 154.435 111.768 159.128C107.587 163.821 105.496 170.093 105.496 177.944C105.496 185.795 107.587 192.067 111.768 196.76C115.949 201.453 121.411 203.8 128.152 203.8C132.333 203.8 136.045 202.819 139.288 200.856C142.616 198.893 145.176 196.035 146.968 192.28H171.032C168.472 202.008 163.395 209.688 155.8 215.32C148.205 220.867 139.075 223.64 128.408 223.64C119.704 223.64 111.896 221.72 104.984 217.88C98.1573 213.955 92.824 208.536 88.984 201.624C85.144 194.712 83.224 186.819 83.224 177.944ZM216.948 224.024C209.951 224.024 203.636 222.531 198.004 219.544C192.457 216.557 188.063 212.291 184.82 206.744C181.663 201.197 180.084 194.712 180.084 187.288C180.084 179.949 181.705 173.507 184.948 167.96C188.191 162.328 192.628 158.019 198.26 155.032C203.892 152.045 210.207 150.552 217.204 150.552C224.201 150.552 230.516 152.045 236.148 155.032C241.78 158.019 246.217 162.328 249.46 167.96C252.703 173.507 254.324 179.949 254.324 187.288C254.324 194.627 252.66 201.112 249.332 206.744C246.089 212.291 241.609 216.557 235.892 219.544C230.26 222.531 223.945 224.024 216.948 224.024ZM216.948 205.08C221.129 205.08 224.671 203.544 227.572 200.472C230.559 197.4 232.052 193.005 232.052 187.288C232.052 181.571 230.601 177.176 227.7 174.104C224.884 171.032 221.385 169.496 217.204 169.496C212.937 169.496 209.396 171.032 206.58 174.104C203.764 177.091 202.356 181.485 202.356 187.288C202.356 193.005 203.721 197.4 206.452 200.472C209.268 203.544 212.767 205.08 216.948 205.08ZM261.584 187.16C261.584 179.821 262.949 173.379 265.68 167.832C268.496 162.285 272.293 158.019 277.072 155.032C281.851 152.045 287.184 150.552 293.072 150.552C297.765 150.552 302.032 151.533 305.872 153.496C309.797 155.459 312.869 158.104 315.088 161.432V128.28H336.976V223H315.088V212.76C313.04 216.173 310.096 218.904 306.256 220.952C302.501 223 298.107 224.024 293.072 224.024C287.184 224.024 281.851 222.531 277.072 219.544C272.293 216.472 268.496 212.163 265.68 206.616C262.949 200.984 261.584 194.499 261.584 187.16ZM315.088 187.288C315.088 181.827 313.552 177.517 310.48 174.36C307.493 171.203 303.824 169.624 299.472 169.624C295.12 169.624 291.408 171.203 288.336 174.36C285.349 177.432 283.856 181.699 283.856 187.16C283.856 192.621 285.349 196.973 288.336 200.216C291.408 203.373 295.12 204.952 299.472 204.952C303.824 204.952 307.493 203.373 310.48 200.216C313.552 197.059 315.088 192.749 315.088 187.288ZM420.139 186.136C420.139 188.184 420.011 190.317 419.755 192.536H370.219C370.56 196.973 371.968 200.387 374.443 202.776C377.003 205.08 380.118 206.232 383.787 206.232C389.248 206.232 393.046 203.928 395.179 199.32H418.475C417.28 204.013 415.104 208.237 411.947 211.992C408.875 215.747 404.992 218.691 400.299 220.824C395.606 222.957 390.358 224.024 384.555 224.024C377.558 224.024 371.328 222.531 365.867 219.544C360.406 216.557 356.139 212.291 353.067 206.744C349.995 201.197 348.459 194.712 348.459 187.288C348.459 179.864 349.952 173.379 352.939 167.832C356.011 162.285 360.278 158.019 365.739 155.032C371.2 152.045 377.472 150.552 384.555 150.552C391.467 150.552 397.611 152.003 402.987 154.904C408.363 157.805 412.544 161.944 415.531 167.32C418.603 172.696 420.139 178.968 420.139 186.136ZM397.739 180.376C397.739 176.621 396.459 173.635 393.899 171.416C391.339 169.197 388.139 168.088 384.299 168.088C380.63 168.088 377.515 169.155 374.955 171.288C372.48 173.421 370.944 176.451 370.347 180.376H397.739ZM178.072 304.808C186.947 304.808 193.987 307.496 199.192 312.872C204.483 318.248 207.128 325.715 207.128 335.272V377H185.368V338.216C185.368 333.608 184.131 330.067 181.656 327.592C179.267 325.032 175.939 323.752 171.672 323.752C167.405 323.752 164.035 325.032 161.56 327.592C159.171 330.067 157.976 333.608 157.976 338.216V377H136.216V338.216C136.216 333.608 134.979 330.067 132.504 327.592C130.115 325.032 126.787 323.752 122.52 323.752C118.253 323.752 114.883 325.032 112.408 327.592C110.019 330.067 108.824 333.608 108.824 338.216V377H86.936V305.576H108.824V314.536C111.043 311.549 113.944 309.203 117.528 307.496C121.112 305.704 125.165 304.808 129.688 304.808C135.064 304.808 139.843 305.96 144.024 308.264C148.291 310.568 151.619 313.853 154.008 318.12C156.483 314.195 159.853 310.995 164.12 308.52C168.387 306.045 173.037 304.808 178.072 304.808ZM254.948 378.024C247.951 378.024 241.636 376.531 236.004 373.544C230.457 370.557 226.063 366.291 222.82 360.744C219.663 355.197 218.084 348.712 218.084 341.288C218.084 333.949 219.705 327.507 222.948 321.96C226.191 316.328 230.628 312.019 236.26 309.032C241.892 306.045 248.207 304.552 255.204 304.552C262.201 304.552 268.516 306.045 274.148 309.032C279.78 312.019 284.217 316.328 287.46 321.96C290.703 327.507 292.324 333.949 292.324 341.288C292.324 348.627 290.66 355.112 287.332 360.744C284.089 366.291 279.609 370.557 273.892 373.544C268.26 376.531 261.945 378.024 254.948 378.024ZM254.948 359.08C259.129 359.08 262.671 357.544 265.572 354.472C268.559 351.4 270.052 347.005 270.052 341.288C270.052 335.571 268.601 331.176 265.7 328.104C262.884 325.032 259.385 323.496 255.204 323.496C250.937 323.496 247.396 325.032 244.58 328.104C241.764 331.091 240.356 335.485 240.356 341.288C240.356 347.005 241.721 351.4 244.452 354.472C247.268 357.544 250.767 359.08 254.948 359.08ZM299.584 341.16C299.584 333.821 300.949 327.379 303.68 321.832C306.496 316.285 310.293 312.019 315.072 309.032C319.851 306.045 325.184 304.552 331.072 304.552C335.765 304.552 340.032 305.533 343.872 307.496C347.797 309.459 350.869 312.104 353.088 315.432V282.28H374.976V377H353.088V366.76C351.04 370.173 348.096 372.904 344.256 374.952C340.501 377 336.107 378.024 331.072 378.024C325.184 378.024 319.851 376.531 315.072 373.544C310.293 370.472 306.496 366.163 303.68 360.616C300.949 354.984 299.584 348.499 299.584 341.16ZM353.088 341.288C353.088 335.827 351.552 331.517 348.48 328.36C345.493 325.203 341.824 323.624 337.472 323.624C333.12 323.624 329.408 325.203 326.336 328.36C323.349 331.432 321.856 335.699 321.856 341.16C321.856 346.621 323.349 350.973 326.336 354.216C329.408 357.373 333.12 358.952 337.472 358.952C341.824 358.952 345.493 357.373 348.48 354.216C351.552 351.059 353.088 346.749 353.088 341.288Z" fill="white"/>
</svg>
