<svg width="512" height="512" viewBox="0 0 512 512" fill="none" xmlns="http://www.w3.org/2000/svg">
<rect width="512" height="512" rx="50" fill="#292929"/>
<path d="M83.224 190.944C83.224 182.069 85.144 174.176 88.984 167.264C92.824 160.267 98.1573 154.848 104.984 151.008C111.896 147.083 119.704 145.12 128.408 145.12C139.075 145.12 148.205 147.936 155.8 153.568C163.395 159.2 168.472 166.88 171.032 176.608H146.968C145.176 172.853 142.616 169.995 139.288 168.032C136.045 166.069 132.333 165.088 128.152 165.088C121.411 165.088 115.949 167.435 111.768 172.128C107.587 176.821 105.496 183.093 105.496 190.944C105.496 198.795 107.587 205.067 111.768 209.76C115.949 214.453 121.411 216.8 128.152 216.8C132.333 216.8 136.045 215.819 139.288 213.856C142.616 211.893 145.176 209.035 146.968 205.28H171.032C168.472 215.008 163.395 222.688 155.8 228.32C148.205 233.867 139.075 236.64 128.408 236.64C119.704 236.64 111.896 234.72 104.984 230.88C98.1573 226.955 92.824 221.536 88.984 214.624C85.144 207.712 83.224 199.819 83.224 190.944ZM216.948 237.024C209.951 237.024 203.636 235.531 198.004 232.544C192.457 229.557 188.063 225.291 184.82 219.744C181.663 214.197 180.084 207.712 180.084 200.288C180.084 192.949 181.705 186.507 184.948 180.96C188.191 175.328 192.628 171.019 198.26 168.032C203.892 165.045 210.207 163.552 217.204 163.552C224.201 163.552 230.516 165.045 236.148 168.032C241.78 171.019 246.217 175.328 249.46 180.96C252.703 186.507 254.324 192.949 254.324 200.288C254.324 207.627 252.66 214.112 249.332 219.744C246.089 225.291 241.609 229.557 235.892 232.544C230.26 235.531 223.945 237.024 216.948 237.024ZM216.948 218.08C221.129 218.08 224.671 216.544 227.572 213.472C230.559 210.4 232.052 206.005 232.052 200.288C232.052 194.571 230.601 190.176 227.7 187.104C224.884 184.032 221.385 182.496 217.204 182.496C212.937 182.496 209.396 184.032 206.58 187.104C203.764 190.091 202.356 194.485 202.356 200.288C202.356 206.005 203.721 210.4 206.452 213.472C209.268 216.544 212.767 218.08 216.948 218.08ZM261.584 200.16C261.584 192.821 262.949 186.379 265.68 180.832C268.496 175.285 272.293 171.019 277.072 168.032C281.851 165.045 287.184 163.552 293.072 163.552C297.765 163.552 302.032 164.533 305.872 166.496C309.797 168.459 312.869 171.104 315.088 174.432V141.28H336.976V236H315.088V225.76C313.04 229.173 310.096 231.904 306.256 233.952C302.501 236 298.107 237.024 293.072 237.024C287.184 237.024 281.851 235.531 277.072 232.544C272.293 229.472 268.496 225.163 265.68 219.616C262.949 213.984 261.584 207.499 261.584 200.16ZM315.088 200.288C315.088 194.827 313.552 190.517 310.48 187.36C307.493 184.203 303.824 182.624 299.472 182.624C295.12 182.624 291.408 184.203 288.336 187.36C285.349 190.432 283.856 194.699 283.856 200.16C283.856 205.621 285.349 209.973 288.336 213.216C291.408 216.373 295.12 217.952 299.472 217.952C303.824 217.952 307.493 216.373 310.48 213.216C313.552 210.059 315.088 205.749 315.088 200.288ZM420.139 199.136C420.139 201.184 420.011 203.317 419.755 205.536H370.219C370.56 209.973 371.968 213.387 374.443 215.776C377.003 218.08 380.118 219.232 383.787 219.232C389.248 219.232 393.046 216.928 395.179 212.32H418.475C417.28 217.013 415.104 221.237 411.947 224.992C408.875 228.747 404.992 231.691 400.299 233.824C395.606 235.957 390.358 237.024 384.555 237.024C377.558 237.024 371.328 235.531 365.867 232.544C360.406 229.557 356.139 225.291 353.067 219.744C349.995 214.197 348.459 207.712 348.459 200.288C348.459 192.864 349.952 186.379 352.939 180.832C356.011 175.285 360.278 171.019 365.739 168.032C371.2 165.045 377.472 163.552 384.555 163.552C391.467 163.552 397.611 165.003 402.987 167.904C408.363 170.805 412.544 174.944 415.531 180.32C418.603 185.696 420.139 191.968 420.139 199.136ZM397.739 193.376C397.739 189.621 396.459 186.635 393.899 184.416C391.339 182.197 388.139 181.088 384.299 181.088C380.63 181.088 377.515 182.155 374.955 184.288C372.48 186.421 370.944 189.451 370.347 193.376H397.739ZM178.072 291.808C186.947 291.808 193.987 294.496 199.192 299.872C204.483 305.248 207.128 312.715 207.128 322.272V364H185.368V325.216C185.368 320.608 184.131 317.067 181.656 314.592C179.267 312.032 175.939 310.752 171.672 310.752C167.405 310.752 164.035 312.032 161.56 314.592C159.171 317.067 157.976 320.608 157.976 325.216V364H136.216V325.216C136.216 320.608 134.979 317.067 132.504 314.592C130.115 312.032 126.787 310.752 122.52 310.752C118.253 310.752 114.883 312.032 112.408 314.592C110.019 317.067 108.824 320.608 108.824 325.216V364H86.936V292.576H108.824V301.536C111.043 298.549 113.944 296.203 117.528 294.496C121.112 292.704 125.165 291.808 129.688 291.808C135.064 291.808 139.843 292.96 144.024 295.264C148.291 297.568 151.619 300.853 154.008 305.12C156.483 301.195 159.853 297.995 164.12 295.52C168.387 293.045 173.037 291.808 178.072 291.808ZM254.948 365.024C247.951 365.024 241.636 363.531 236.004 360.544C230.457 357.557 226.063 353.291 222.82 347.744C219.663 342.197 218.084 335.712 218.084 328.288C218.084 320.949 219.705 314.507 222.948 308.96C226.191 303.328 230.628 299.019 236.26 296.032C241.892 293.045 248.207 291.552 255.204 291.552C262.201 291.552 268.516 293.045 274.148 296.032C279.78 299.019 284.217 303.328 287.46 308.96C290.703 314.507 292.324 320.949 292.324 328.288C292.324 335.627 290.66 342.112 287.332 347.744C284.089 353.291 279.609 357.557 273.892 360.544C268.26 363.531 261.945 365.024 254.948 365.024ZM254.948 346.08C259.129 346.08 262.671 344.544 265.572 341.472C268.559 338.4 270.052 334.005 270.052 328.288C270.052 322.571 268.601 318.176 265.7 315.104C262.884 312.032 259.385 310.496 255.204 310.496C250.937 310.496 247.396 312.032 244.58 315.104C241.764 318.091 240.356 322.485 240.356 328.288C240.356 334.005 241.721 338.4 244.452 341.472C247.268 344.544 250.767 346.08 254.948 346.08ZM299.584 328.16C299.584 320.821 300.949 314.379 303.68 308.832C306.496 303.285 310.293 299.019 315.072 296.032C319.851 293.045 325.184 291.552 331.072 291.552C335.765 291.552 340.032 292.533 343.872 294.496C347.797 296.459 350.869 299.104 353.088 302.432V269.28H374.976V364H353.088V353.76C351.04 357.173 348.096 359.904 344.256 361.952C340.501 364 336.107 365.024 331.072 365.024C325.184 365.024 319.851 363.531 315.072 360.544C310.293 357.472 306.496 353.163 303.68 347.616C300.949 341.984 299.584 335.499 299.584 328.16ZM353.088 328.288C353.088 322.827 351.552 318.517 348.48 315.36C345.493 312.203 341.824 310.624 337.472 310.624C333.12 310.624 329.408 312.203 326.336 315.36C323.349 318.432 321.856 322.699 321.856 328.16C321.856 333.621 323.349 337.973 326.336 341.216C329.408 344.373 333.12 345.952 337.472 345.952C341.824 345.952 345.493 344.373 348.48 341.216C351.552 338.059 353.088 333.749 353.088 328.288Z" fill="white"/>
</svg>
